<?xml version="1.0" standalone="no"?>
<!DOCTYPE svg PUBLIC "-//W3C//DTD SVG 1.1//EN" "http://www.w3.org/Graphics/SVG/1.1/DTD/svg11.dtd">
<svg width="44px" viewBox="0 0 448 448" version="1.1" xmlns="http://www.w3.org/2000/svg" xmlns:xlink="http://www.w3.org/1999/xlink" xml:space="preserve" style="fill-rule:evenodd;clip-rule:evenodd;stroke-linejoin:round;stroke-miterlimit:1.41421;">
    <g transform="matrix(1,0,0,1,-32,-32)">
        <g>
            <g>
                <path d="M256,32C132.3,32 32,132.3 32,256C32,379.7 132.3,480 256,480C379.7,480 480,379.7 480,256C480,132.3 379.7,32 256,32ZM403.1,403.1C384,422.2 361.7,437.2 337,447.7C311.4,458.5 284.1,464 256,464C227.9,464 200.7,458.5 175,447.7C150.2,437.2 128,422.2 108.9,403.1C89.8,384 74.8,361.7 64.3,337C53.5,311.3 48,284.1 48,256C48,227.9 53.5,200.7 64.3,175C74.8,150.2 89.8,128 108.9,108.9C128,89.8 150.3,74.8 175,64.3C200.7,53.5 227.9,48 256,48C284.1,48 311.3,53.5 337,64.3C361.8,74.8 384,89.8 403.1,108.9C422.2,128 437.2,150.3 447.7,175C458.5,200.6 464,227.9 464,256C464,284.1 458.5,311.3 447.7,337C437.2,361.7 422.2,384 403.1,403.1Z" style="fill:rgb(34,116,192);fill-rule:nonzero;"/>
                <circle cx="256" cy="80" r="8" style="fill:rgb(34,116,192);"/>
                <circle cx="256" cy="432" r="8" style="fill:rgb(34,116,192);"/>
                <circle cx="432" cy="256" r="8" style="fill:rgb(34,116,192);"/>
                <circle cx="80" cy="256" r="8" style="fill:rgb(34,116,192);"/>
                <circle cx="168" cy="103.6" r="8" style="fill:rgb(34,116,192);"/>
                <circle cx="344" cy="408.4" r="8" style="fill:rgb(34,116,192);"/>
                <circle cx="408.4" cy="168" r="8" style="fill:rgb(34,116,192);"/>
                <circle cx="103.6" cy="344" r="8" style="fill:rgb(34,116,192);"/>
                <circle cx="103.6" cy="168" r="8" style="fill:rgb(34,116,192);"/>
                <circle cx="408.4" cy="344" r="8" style="fill:rgb(34,116,192);"/>
                <circle cx="344" cy="103.6" r="8" style="fill:rgb(34,116,192);"/>
                <circle cx="168" cy="408.4" r="8" style="fill:rgb(34,116,192);"/>
            </g>
            <path d="M269.9,248C267,243 261.8,240.2 256.5,240L218.5,176.6C216.2,172.8 211.3,171.6 207.5,173.9C203.7,176.2 202.5,181.1 204.8,184.9L242.4,247.8C239.5,252.6 239.2,258.9 242.2,264.1C243.7,266.6 245.7,268.6 248.1,269.9L248.1,392C248.1,396.4 251.7,400 256.1,400C260.5,400 264.1,396.4 264.1,392L264.1,269.9C271.7,265.4 274.3,255.7 269.9,248Z" style="fill:rgb(34,116,192);fill-rule:nonzero;"/>
        </g>
    </g>
</svg>
