<?xml version="1.0" standalone="no"?>
<!DOCTYPE svg PUBLIC "-//W3C//DTD SVG 1.1//EN" "http://www.w3.org/Graphics/SVG/1.1/DTD/svg11.dtd">
<svg width="42px" viewBox="0 0 60 64" version="1.1" xmlns="http://www.w3.org/2000/svg" xmlns:xlink="http://www.w3.org/1999/xlink" xml:space="preserve" style="fill-rule:evenodd;clip-rule:evenodd;stroke-linejoin:round;stroke-miterlimit:1.41421;">
    <g transform="matrix(1,0,0,1,-2,-0.0288659)">
        <g id="Map-geo-tag_2_">
            <path d="M61.579,21.155C61.314,20.967 60.976,20.921 60.67,21.026L42.501,27.385C45.103,22.325 47.289,17.04 47.289,13.557C47.289,6.097 41.221,0.029 33.761,0.029C26.301,0.029 20.233,6.097 20.233,13.557C20.233,19.595 26.806,31.065 30.729,37.37C31.362,38.432 32.522,39.091 33.76,39.091C33.761,39.091 33.762,39.091 33.764,39.091C35.005,39.091 36.169,38.428 36.789,37.378C37.746,35.841 38.861,33.993 40,31.994L40,61.606L23,56.238L23,23.97C23,23.916 22.978,23.869 22.969,23.817C22.961,23.767 22.969,23.719 22.953,23.669C22.948,23.655 22.937,23.645 22.931,23.63C22.906,23.561 22.867,23.502 22.827,23.441C22.795,23.391 22.769,23.339 22.73,23.296C22.686,23.249 22.633,23.216 22.582,23.178C22.529,23.14 22.481,23.098 22.422,23.071C22.371,23.046 22.314,23.037 22.258,23.022C22.187,23.003 22.118,22.982 22.044,22.979C22.028,22.978 22.015,22.97 22,22.97C21.947,22.97 21.901,22.992 21.85,23C21.8,23.008 21.75,23.001 21.699,23.017L2.699,29.017C2.283,29.148 2,29.534 2,29.97L2,62.97C2,63.289 2.152,63.588 2.409,63.777C2.582,63.904 2.79,63.97 3,63.97C3.101,63.97 3.202,63.955 3.301,63.923L22,58.019L40.699,63.923C40.904,63.99 41.127,63.987 41.33,63.915L61.33,56.915C61.731,56.774 62,56.395 62,55.97L62,21.97C62,21.646 61.843,21.342 61.579,21.155ZM35.08,36.34C34.806,36.804 34.302,37.091 33.763,37.091C33.762,37.091 33.762,37.091 33.761,37.091C33.222,37.091 32.718,36.804 32.443,36.341C32.44,36.335 32.437,36.329 32.432,36.322C25.95,25.904 22.232,17.606 22.232,13.557C22.232,7.201 27.404,2.029 33.761,2.029C40.117,2.029 45.289,7.201 45.289,13.557C45.289,17.608 41.572,25.906 35.08,36.34ZM4,30.703L21,25.334L21,56.238L4,61.606L4,30.703ZM60,55.26L42,61.561L42,29.68L60,23.379L60,55.26Z" style="fill:rgb(34,116,192);fill-rule:nonzero;"/>
            <path d="M33.762,6.041C30.302,6.041 27.497,8.846 27.497,12.305C27.497,15.765 30.302,18.569 33.762,18.569C37.221,18.569 40.026,15.765 40.026,12.305C40.026,8.846 37.221,6.041 33.762,6.041ZM33.762,16.569C31.41,16.569 29.497,14.656 29.497,12.305C29.497,9.954 31.41,8.041 33.762,8.041C36.113,8.041 38.026,9.954 38.026,12.305C38.026,14.656 36.113,16.569 33.762,16.569Z" style="fill:rgb(34,116,192);fill-rule:nonzero;"/>
        </g>
    </g>
</svg>
