<?xml version="1.0" standalone="no"?>
<!DOCTYPE svg PUBLIC "-//W3C//DTD SVG 1.1//EN" "http://www.w3.org/Graphics/SVG/1.1/DTD/svg11.dtd">
<svg width="100%" height="100%" viewBox="0 0 275 46" version="1.1" xmlns="http://www.w3.org/2000/svg" xmlns:xlink="http://www.w3.org/1999/xlink" xml:space="preserve" style="fill-rule:evenodd;clip-rule:evenodd;stroke-linejoin:round;stroke-miterlimit:1.41421;">
    <g transform="matrix(1,0,0,1,-378.749,-77.3438)">
        <g transform="matrix(1.11291,0,0,2.94444,-505.787,-158.454)">
            <g transform="matrix(0.898542,0,0,0.339623,80.6773,52.7957)">
                <path d="M810.21,95.458L807.982,88.874C807.817,88.456 807.641,87.964 807.454,87.398C807.267,86.831 807.08,86.218 806.893,85.558C806.728,86.229 806.552,86.85 806.365,87.422C806.178,87.994 806.002,88.489 805.837,88.907L803.626,95.458L810.21,95.458ZM819.07,104.648L814.747,104.648C814.263,104.648 813.873,104.536 813.576,104.31C813.279,104.085 813.053,103.796 812.899,103.444L811.48,99.253L802.339,99.253L800.92,103.444C800.799,103.752 800.582,104.03 800.269,104.277C799.955,104.525 799.567,104.648 799.105,104.648L794.749,104.648L804.055,80.608L809.764,80.608L819.07,104.648Z" style="fill:rgb(67,128,193);fill-rule:nonzero;"/>
            </g>
            <g transform="matrix(0.898542,0,0,0.339623,80.6773,52.7957)">
                <path d="M831.264,100.243C832.012,100.243 832.68,100.119 833.269,99.872C833.857,99.624 834.355,99.269 834.762,98.807C835.169,98.345 835.48,97.782 835.694,97.116C835.909,96.451 836.016,95.694 836.016,94.847L836.016,80.608L841.593,80.608L841.593,94.847C841.593,96.321 841.354,97.674 840.875,98.906C840.397,100.138 839.712,101.2 838.821,102.091C837.93,102.982 836.846,103.675 835.57,104.17C834.294,104.665 832.859,104.912 831.264,104.912C829.658,104.912 828.217,104.665 826.941,104.17C825.665,103.675 824.581,102.982 823.69,102.091C822.799,101.2 822.117,100.138 821.644,98.906C821.171,97.674 820.935,96.321 820.935,94.847L820.935,80.608L826.512,80.608L826.512,94.831C826.512,95.678 826.619,96.434 826.834,97.1C827.048,97.765 827.359,98.332 827.766,98.799C828.173,99.267 828.671,99.624 829.259,99.872C829.848,100.119 830.516,100.243 831.264,100.243Z" style="fill:rgb(67,128,193);fill-rule:nonzero;"/>
            </g>
            <g transform="matrix(0.898542,0,0,0.339623,80.6773,52.7957)">
                <path d="M864.115,85.03L857.35,85.03L857.35,104.648L851.773,104.648L851.773,85.03L845.008,85.03L845.008,80.608L864.115,80.608L864.115,85.03Z" style="fill:rgb(67,128,193);fill-rule:nonzero;"/>
            </g>
            <g transform="matrix(0.898542,0,0,0.339623,80.6773,52.7957)">
                <path d="M890.862,92.62C890.862,94.358 890.562,95.975 889.963,97.471C889.363,98.967 888.519,100.268 887.43,101.373C886.341,102.479 885.029,103.345 883.495,103.972C881.96,104.599 880.258,104.912 878.388,104.912C876.518,104.912 874.813,104.599 873.273,103.972C871.733,103.345 870.416,102.479 869.321,101.373C868.227,100.268 867.38,98.967 866.78,97.471C866.181,95.975 865.881,94.358 865.881,92.62C865.881,90.882 866.181,89.265 866.78,87.769C867.38,86.273 868.227,84.975 869.321,83.875C870.416,82.775 871.733,81.911 873.273,81.284C874.813,80.657 876.518,80.344 878.388,80.344C880.258,80.344 881.96,80.66 883.495,81.293C885.029,81.925 886.341,82.791 887.43,83.891C888.519,84.991 889.363,86.289 889.963,87.785C890.562,89.281 890.862,90.893 890.862,92.62ZM885.153,92.62C885.153,91.432 884.999,90.362 884.691,89.411C884.383,88.459 883.94,87.653 883.363,86.993C882.785,86.333 882.078,85.827 881.242,85.475C880.406,85.123 879.455,84.947 878.388,84.947C877.31,84.947 876.35,85.123 875.509,85.475C874.667,85.827 873.958,86.333 873.38,86.993C872.803,87.653 872.36,88.459 872.052,89.411C871.744,90.362 871.59,91.432 871.59,92.62C871.59,93.819 871.744,94.894 872.052,95.846C872.36,96.797 872.803,97.603 873.38,98.263C873.958,98.923 874.667,99.426 875.509,99.773C876.35,100.119 877.31,100.292 878.388,100.292C879.455,100.292 880.406,100.119 881.242,99.773C882.078,99.426 882.785,98.923 883.363,98.263C883.94,97.603 884.383,96.797 884.691,95.846C884.999,94.894 885.153,93.819 885.153,92.62Z" style="fill:rgb(67,128,193);fill-rule:nonzero;"/>
            </g>
            <g transform="matrix(0.898542,0,0,0.339623,80.6773,52.7957)">
                <path d="M919.753,98.428C919.885,98.428 920.017,98.453 920.149,98.502C920.281,98.552 920.408,98.637 920.529,98.758L922.74,101.084C921.772,102.349 920.559,103.304 919.102,103.947C917.644,104.591 915.92,104.912 913.929,104.912C912.103,104.912 910.467,104.602 909.02,103.98C907.574,103.359 906.347,102.501 905.341,101.406C904.334,100.312 903.561,99.014 903.022,97.512C902.483,96.011 902.214,94.38 902.214,92.62C902.214,90.827 902.505,89.18 903.088,87.678C903.671,86.177 904.491,84.881 905.547,83.792C906.603,82.703 907.868,81.856 909.342,81.251C910.816,80.646 912.438,80.344 914.209,80.344C915.111,80.344 915.961,80.424 916.759,80.583C917.556,80.743 918.301,80.963 918.994,81.243C919.687,81.524 920.325,81.862 920.908,82.258C921.491,82.654 922.008,83.083 922.459,83.545L920.578,86.069C920.457,86.223 920.314,86.364 920.149,86.49C919.984,86.617 919.753,86.68 919.456,86.68C919.258,86.68 919.071,86.636 918.895,86.548C918.719,86.46 918.532,86.353 918.334,86.226C918.136,86.1 917.919,85.962 917.683,85.814C917.446,85.665 917.166,85.528 916.841,85.401C916.517,85.275 916.137,85.167 915.703,85.079C915.268,84.991 914.759,84.947 914.176,84.947C913.252,84.947 912.408,85.118 911.644,85.459C910.879,85.8 910.219,86.298 909.664,86.952C909.108,87.607 908.679,88.41 908.377,89.361C908.074,90.313 907.923,91.399 907.923,92.62C907.923,93.852 908.091,94.946 908.426,95.903C908.762,96.86 909.218,97.666 909.796,98.321C910.373,98.975 911.047,99.473 911.817,99.814C912.587,100.155 913.412,100.325 914.292,100.325C914.798,100.325 915.26,100.301 915.678,100.251C916.096,100.202 916.486,100.119 916.849,100.004C917.212,99.888 917.553,99.734 917.872,99.542C918.191,99.349 918.516,99.104 918.846,98.807C918.978,98.697 919.121,98.607 919.275,98.535C919.429,98.464 919.588,98.428 919.753,98.428Z" style="fill:rgb(67,128,193);fill-rule:nonzero;"/>
            </g>
            <g transform="matrix(0.898542,0,0,0.339623,80.6773,52.7957)">
                <path d="M931.683,84.898L931.683,90.508L939.24,90.508L939.24,94.633L931.683,94.633L931.683,100.358L941.55,100.358L941.55,104.648L926.073,104.648L926.073,80.608L941.55,80.608L941.55,84.898L931.683,84.898Z" style="fill:rgb(67,128,193);fill-rule:nonzero;"/>
            </g>
            <g transform="matrix(0.898542,0,0,0.339623,80.6773,52.7957)">
                <path d="M966.861,80.608L966.861,104.648L963.957,104.648C963.528,104.648 963.168,104.58 962.876,104.442C962.585,104.305 962.296,104.065 962.01,103.724L950.674,89.386C950.718,89.815 950.749,90.23 950.765,90.632C950.782,91.033 950.79,91.41 950.79,91.762L950.79,104.648L945.873,104.648L945.873,80.608L948.81,80.608C949.052,80.608 949.255,80.619 949.42,80.641C949.585,80.663 949.734,80.704 949.866,80.765C949.998,80.825 950.124,80.91 950.245,81.02C950.366,81.13 950.504,81.279 950.658,81.466L962.092,95.903C962.037,95.441 961.999,94.993 961.977,94.559C961.955,94.124 961.944,93.714 961.944,93.329L961.944,80.608L966.861,80.608Z" style="fill:rgb(67,128,193);fill-rule:nonzero;"/>
            </g>
            <g transform="matrix(0.898542,0,0,0.339623,80.6773,52.7957)">
                <path d="M989.68,85.03L982.915,85.03L982.915,104.648L977.338,104.648L977.338,85.03L970.573,85.03L970.573,80.608L989.68,80.608L989.68,85.03Z" style="fill:rgb(67,128,193);fill-rule:nonzero;"/>
            </g>
            <g transform="matrix(0.898542,0,0,0.339623,80.6773,52.7957)">
                <path d="M1001.21,91.91C1001.97,91.91 1002.62,91.814 1003.15,91.622C1003.69,91.429 1004.12,91.162 1004.46,90.821C1004.81,90.48 1005.05,90.082 1005.21,89.625C1005.36,89.169 1005.44,88.676 1005.44,88.148C1005.44,87.092 1005.09,86.267 1004.41,85.673C1003.72,85.079 1002.65,84.782 1001.21,84.782L998.97,84.782L998.97,91.91L1001.21,91.91ZM1013.06,104.648L1008.01,104.648C1007.08,104.648 1006.41,104.296 1006,103.592L1002.01,96.613C1001.82,96.316 1001.61,96.099 1001.38,95.961C1001.15,95.824 1000.82,95.755 1000.39,95.755L998.97,95.755L998.97,104.648L993.393,104.648L993.393,80.608L1001.21,80.608C1002.95,80.608 1004.43,80.787 1005.66,81.144C1006.89,81.502 1007.89,81.999 1008.66,82.637C1009.44,83.275 1010,84.029 1010.36,84.898C1010.71,85.767 1010.88,86.713 1010.88,87.736C1010.88,88.517 1010.78,89.254 1010.57,89.947C1010.36,90.64 1010.05,91.281 1009.64,91.869C1009.24,92.458 1008.74,92.983 1008.14,93.445C1007.54,93.907 1006.85,94.286 1006.07,94.583C1006.43,94.77 1006.77,95.004 1007.09,95.285C1007.41,95.565 1007.69,95.898 1007.95,96.283L1013.06,104.648Z" style="fill:rgb(67,128,193);fill-rule:nonzero;"/>
            </g>
            <g transform="matrix(0.898542,0,0,0.339623,80.6773,52.7957)">
                <path d="M1025.77,100.243C1026.51,100.243 1027.18,100.119 1027.77,99.872C1028.36,99.624 1028.86,99.269 1029.26,98.807C1029.67,98.345 1029.98,97.782 1030.2,97.116C1030.41,96.451 1030.52,95.694 1030.52,94.847L1030.52,80.608L1036.1,80.608L1036.1,94.847C1036.1,96.321 1035.86,97.674 1035.38,98.906C1034.9,100.138 1034.21,101.2 1033.32,102.091C1032.43,102.982 1031.35,103.675 1030.07,104.17C1028.8,104.665 1027.36,104.912 1025.77,104.912C1024.16,104.912 1022.72,104.665 1021.44,104.17C1020.17,103.675 1019.08,102.982 1018.19,102.091C1017.3,101.2 1016.62,100.138 1016.15,98.906C1015.67,97.674 1015.44,96.321 1015.44,94.847L1015.44,80.608L1021.01,80.608L1021.01,94.831C1021.01,95.678 1021.12,96.434 1021.34,97.1C1021.55,97.765 1021.86,98.332 1022.27,98.799C1022.68,99.267 1023.17,99.624 1023.76,99.872C1024.35,100.119 1025.02,100.243 1025.77,100.243Z" style="fill:rgb(67,128,193);fill-rule:nonzero;"/>
            </g>
            <g transform="matrix(0.898542,0,0,0.339623,80.6773,52.7957)">
                <path d="M1068.37,80.608L1068.37,104.648L1063.45,104.648L1063.45,90.821C1063.45,90.502 1063.46,90.156 1063.48,89.782C1063.49,89.408 1063.52,89.028 1063.57,88.643L1057.18,101.002C1056.98,101.387 1056.72,101.678 1056.38,101.876C1056.05,102.074 1055.66,102.173 1055.24,102.173L1054.48,102.173C1054.05,102.173 1053.66,102.074 1053.33,101.876C1052.99,101.678 1052.73,101.387 1052.53,101.002L1046.14,88.61C1046.18,89.006 1046.2,89.394 1046.23,89.774C1046.25,90.153 1046.26,90.502 1046.26,90.821L1046.26,104.648L1041.34,104.648L1041.34,80.608L1045.6,80.608C1045.84,80.608 1046.05,80.613 1046.23,80.624C1046.42,80.635 1046.58,80.668 1046.72,80.723C1046.86,80.778 1046.99,80.864 1047.11,80.979C1047.22,81.095 1047.34,81.257 1047.45,81.466L1053.63,93.659C1053.85,94.077 1054.07,94.512 1054.27,94.963C1054.47,95.414 1054.67,95.876 1054.86,96.349C1055.04,95.865 1055.24,95.392 1055.44,94.93C1055.64,94.468 1055.86,94.028 1056.09,93.61L1062.26,81.466C1062.37,81.257 1062.49,81.095 1062.6,80.979C1062.72,80.864 1062.85,80.778 1062.99,80.723C1063.13,80.668 1063.3,80.635 1063.48,80.624C1063.66,80.613 1063.87,80.608 1064.11,80.608L1068.37,80.608Z" style="fill:rgb(67,128,193);fill-rule:nonzero;"/>
            </g>
            <g transform="matrix(0.898542,0,0,0.339623,80.6773,52.7957)">
                <path d="M803.092,115.843C803.024,115.962 802.952,116.048 802.875,116.102C802.799,116.156 802.704,116.183 802.59,116.183C802.471,116.183 802.342,116.139 802.204,116.051C802.065,115.963 801.899,115.865 801.706,115.758C801.514,115.65 801.288,115.552 801.031,115.465C800.773,115.377 800.468,115.333 800.117,115.333C799.8,115.333 799.522,115.371 799.284,115.448C799.046,115.524 798.846,115.63 798.685,115.766C798.523,115.902 798.403,116.065 798.323,116.255C798.244,116.445 798.204,116.653 798.204,116.88C798.204,117.169 798.285,117.41 798.447,117.602C798.608,117.795 798.822,117.959 799.088,118.095C799.355,118.231 799.658,118.353 799.998,118.461C800.338,118.568 800.686,118.683 801.043,118.805C801.4,118.927 801.749,119.069 802.089,119.23C802.429,119.392 802.732,119.596 802.998,119.842C803.265,120.089 803.479,120.39 803.64,120.747C803.802,121.104 803.882,121.538 803.882,122.048C803.882,122.603 803.787,123.123 803.598,123.608C803.408,124.092 803.13,124.514 802.765,124.874C802.399,125.234 801.953,125.517 801.426,125.724C800.899,125.931 800.295,126.034 799.615,126.034C799.224,126.034 798.839,125.996 798.459,125.92C798.08,125.843 797.716,125.734 797.367,125.592C797.019,125.451 796.691,125.281 796.385,125.082C796.079,124.884 795.807,124.663 795.569,124.419L796.241,123.323C796.298,123.243 796.371,123.177 796.462,123.123C796.553,123.069 796.649,123.042 796.751,123.042C796.893,123.042 797.046,123.1 797.21,123.217C797.374,123.333 797.57,123.462 797.796,123.603C798.023,123.745 798.288,123.874 798.591,123.99C798.894,124.106 799.258,124.164 799.683,124.164C800.335,124.164 800.839,124.01 801.196,123.701C801.553,123.392 801.732,122.949 801.732,122.371C801.732,122.048 801.651,121.784 801.49,121.58C801.328,121.376 801.114,121.205 800.848,121.066C800.582,120.927 800.278,120.81 799.938,120.713C799.598,120.617 799.253,120.512 798.901,120.399C798.55,120.285 798.204,120.149 797.864,119.991C797.524,119.832 797.221,119.625 796.955,119.37C796.689,119.115 796.475,118.797 796.313,118.414C796.152,118.032 796.071,117.56 796.071,116.999C796.071,116.551 796.16,116.115 796.339,115.69C796.517,115.265 796.776,114.888 797.116,114.559C797.456,114.231 797.876,113.967 798.374,113.769C798.873,113.57 799.445,113.471 800.091,113.471C800.817,113.471 801.485,113.585 802.097,113.811C802.709,114.038 803.231,114.355 803.661,114.763L803.092,115.843Z" style="fill:rgb(67,128,193);fill-rule:nonzero;"/>
            </g>
            <g transform="matrix(0.898542,0,0,0.339623,80.6773,52.7957)">
                <path d="M815.442,115.486L811.736,115.486L811.736,125.898L809.45,125.898L809.45,115.486L805.744,115.486L805.744,113.607L815.442,113.607L815.442,115.486Z" style="fill:rgb(67,128,193);fill-rule:nonzero;"/>
            </g>
            <g transform="matrix(0.898542,0,0,0.339623,80.6773,52.7957)">
                <path d="M823.339,121.257L821.843,117.169C821.769,116.987 821.693,116.772 821.613,116.523C821.534,116.273 821.455,116.004 821.375,115.715C821.302,116.004 821.225,116.275 821.146,116.527C821.067,116.779 820.99,116.999 820.916,117.186L819.429,121.257L823.339,121.257ZM827.376,125.898L825.608,125.898C825.41,125.898 825.249,125.849 825.124,125.75C824.999,125.65 824.906,125.527 824.843,125.38L823.925,122.872L818.834,122.872L817.916,125.38C817.871,125.51 817.783,125.629 817.652,125.737C817.522,125.844 817.361,125.898 817.168,125.898L815.383,125.898L820.219,113.607L822.548,113.607L827.376,125.898Z" style="fill:rgb(67,128,193);fill-rule:nonzero;"/>
            </g>
            <g transform="matrix(0.898542,0,0,0.339623,80.6773,52.7957)">
                <path d="M837.712,123C837.837,123 837.948,123.048 838.044,123.144L838.945,124.122C838.446,124.739 837.833,125.213 837.105,125.541C836.376,125.87 835.502,126.034 834.482,126.034C833.57,126.034 832.75,125.878 832.022,125.567C831.293,125.255 830.672,124.822 830.156,124.266C829.64,123.711 829.245,123.048 828.97,122.277C828.695,121.507 828.558,120.665 828.558,119.753C828.558,118.829 828.705,117.983 829,117.216C829.295,116.448 829.71,115.786 830.245,115.231C830.781,114.675 831.42,114.243 832.162,113.935C832.904,113.626 833.726,113.471 834.627,113.471C835.522,113.471 836.317,113.619 837.011,113.913C837.705,114.208 838.296,114.593 838.783,115.069L838.018,116.132C837.973,116.2 837.915,116.259 837.844,116.31C837.773,116.361 837.676,116.387 837.551,116.387C837.466,116.387 837.378,116.363 837.287,116.315C837.197,116.266 837.098,116.207 836.99,116.136C836.882,116.065 836.758,115.987 836.616,115.902C836.474,115.817 836.31,115.739 836.123,115.669C835.936,115.598 835.719,115.538 835.473,115.49C835.226,115.442 834.941,115.418 834.618,115.418C834.069,115.418 833.566,115.516 833.11,115.711C832.653,115.907 832.261,116.19 831.932,116.561C831.604,116.932 831.349,117.386 831.167,117.921C830.986,118.457 830.895,119.067 830.895,119.753C830.895,120.444 830.993,121.059 831.189,121.597C831.384,122.136 831.649,122.589 831.983,122.957C832.318,123.326 832.712,123.608 833.165,123.803C833.618,123.999 834.106,124.096 834.627,124.096C834.939,124.096 835.22,124.079 835.473,124.045C835.725,124.011 835.957,123.957 836.17,123.884C836.382,123.81 836.583,123.715 836.773,123.599C836.963,123.483 837.151,123.34 837.338,123.17C837.395,123.119 837.455,123.078 837.517,123.047C837.579,123.015 837.644,123 837.712,123Z" style="fill:rgb(67,128,193);fill-rule:nonzero;"/>
            </g>
            <g transform="matrix(0.898542,0,0,0.339623,80.6773,52.7957)">
                <path d="M846.187,121.529C846.187,122.221 846.102,122.844 845.932,123.399C845.762,123.955 845.508,124.428 845.171,124.819C844.834,125.21 844.413,125.51 843.909,125.72C843.405,125.929 842.818,126.034 842.149,126.034C841.843,126.034 841.543,126.016 841.248,125.979C840.954,125.942 840.645,125.884 840.322,125.805C840.339,125.578 840.359,125.351 840.381,125.125C840.404,124.898 840.424,124.671 840.441,124.445C840.458,124.32 840.507,124.22 840.59,124.143C840.672,124.067 840.789,124.028 840.942,124.028C841.039,124.028 841.165,124.048 841.321,124.088C841.476,124.127 841.673,124.147 841.911,124.147C842.234,124.147 842.521,124.101 842.77,124.007C843.019,123.914 843.227,123.765 843.395,123.561C843.562,123.357 843.688,123.092 843.773,122.766C843.858,122.44 843.9,122.045 843.9,121.58L843.9,113.607L846.187,113.607L846.187,121.529Z" style="fill:rgb(67,128,193);fill-rule:nonzero;"/>
            </g>
            <g transform="matrix(0.898542,0,0,0.339623,80.6773,52.7957)">
                <path d="M856.098,121.257L854.602,117.169C854.528,116.987 854.452,116.772 854.372,116.523C854.293,116.273 854.214,116.004 854.134,115.715C854.061,116.004 853.984,116.275 853.905,116.527C853.826,116.779 853.749,116.999 853.675,117.186L852.188,121.257L856.098,121.257ZM860.135,125.898L858.367,125.898C858.169,125.898 858.008,125.849 857.883,125.75C857.758,125.65 857.665,125.527 857.602,125.38L856.684,122.872L851.593,122.872L850.675,125.38C850.63,125.51 850.542,125.629 850.411,125.737C850.281,125.844 850.12,125.898 849.927,125.898L848.142,125.898L852.978,113.607L855.307,113.607L860.135,125.898Z" style="fill:rgb(67,128,193);fill-rule:nonzero;"/>
            </g>
            <g transform="matrix(0.898542,0,0,0.339623,80.6773,52.7957)">
                <path d="M869.23,118.758L869.766,118.758C869.981,118.758 870.16,118.729 870.301,118.669C870.443,118.61 870.565,118.515 870.667,118.384L874.058,114.092C874.2,113.91 874.349,113.784 874.505,113.714C874.66,113.643 874.857,113.607 875.095,113.607L877.067,113.607L872.928,118.716C872.684,119.027 872.432,119.248 872.171,119.379C872.358,119.447 872.527,119.542 872.677,119.664C872.827,119.785 872.97,119.945 873.106,120.144L877.373,125.898L875.359,125.898C875.087,125.898 874.884,125.86 874.751,125.784C874.618,125.707 874.506,125.595 874.415,125.448L870.939,120.909C870.831,120.756 870.707,120.648 870.565,120.586C870.423,120.523 870.219,120.492 869.953,120.492L869.23,120.492L869.23,125.898L866.944,125.898L866.944,113.607L869.23,113.607L869.23,118.758Z" style="fill:rgb(67,128,193);fill-rule:nonzero;"/>
            </g>
            <g transform="matrix(0.898542,0,0,0.339623,80.6773,52.7957)">
                <path d="M890.676,119.753C890.676,120.654 890.527,121.488 890.23,122.256C889.932,123.024 889.511,123.688 888.967,124.249C888.423,124.81 887.769,125.248 887.004,125.563C886.239,125.877 885.389,126.034 884.454,126.034C883.525,126.034 882.677,125.877 881.912,125.563C881.147,125.248 880.491,124.81 879.945,124.249C879.398,123.688 878.974,123.024 878.674,122.256C878.374,121.488 878.223,120.654 878.223,119.753C878.223,118.852 878.374,118.017 878.674,117.25C878.974,116.482 879.398,115.817 879.945,115.256C880.491,114.695 881.147,114.258 881.912,113.943C882.677,113.629 883.525,113.471 884.454,113.471C885.077,113.471 885.664,113.544 886.213,113.688C886.763,113.833 887.267,114.037 887.726,114.3C888.185,114.564 888.598,114.884 888.963,115.261C889.329,115.637 889.639,116.058 889.894,116.523C890.149,116.987 890.343,117.492 890.476,118.036C890.609,118.58 890.676,119.152 890.676,119.753ZM888.338,119.753C888.338,119.078 888.248,118.474 888.066,117.938C887.885,117.403 887.627,116.948 887.293,116.574C886.959,116.2 886.552,115.914 886.073,115.715C885.594,115.517 885.055,115.418 884.454,115.418C883.853,115.418 883.313,115.517 882.835,115.715C882.356,115.914 881.948,116.2 881.611,116.574C881.273,116.948 881.014,117.403 880.833,117.938C880.652,118.474 880.561,119.078 880.561,119.753C880.561,120.427 880.652,121.032 880.833,121.568C881.014,122.103 881.273,122.556 881.611,122.928C881.948,123.299 882.356,123.583 882.835,123.782C883.313,123.98 883.853,124.079 884.454,124.079C885.055,124.079 885.594,123.98 886.073,123.782C886.552,123.583 886.959,123.299 887.293,122.928C887.627,122.556 887.885,122.103 888.066,121.568C888.248,121.032 888.338,120.427 888.338,119.753Z" style="fill:rgb(67,128,193);fill-rule:nonzero;"/>
            </g>
            <g transform="matrix(0.898542,0,0,0.339623,80.6773,52.7957)">
                <path d="M904.038,113.607L904.038,125.898L902.865,125.898C902.684,125.898 902.532,125.869 902.41,125.809C902.288,125.75 902.171,125.649 902.057,125.507L895.64,117.313C895.674,117.687 895.691,118.033 895.691,118.35L895.691,125.898L893.676,125.898L893.676,113.607L894.875,113.607C894.971,113.607 895.055,113.612 895.126,113.62C895.196,113.629 895.259,113.646 895.313,113.671C895.366,113.697 895.419,113.733 895.47,113.782C895.521,113.83 895.578,113.893 895.64,113.973L902.083,122.201C902.066,122.002 902.052,121.807 902.04,121.614C902.029,121.422 902.023,121.243 902.023,121.079L902.023,113.607L904.038,113.607Z" style="fill:rgb(67,128,193);fill-rule:nonzero;"/>
            </g>
            <g transform="matrix(0.898542,0,0,0.339623,80.6773,52.7957)">
                <path d="M916.346,115.486L912.64,115.486L912.64,125.898L910.353,125.898L910.353,115.486L906.647,115.486L906.647,113.607L916.346,113.607L916.346,115.486Z" style="fill:rgb(67,128,193);fill-rule:nonzero;"/>
            </g>
            <g transform="matrix(0.898542,0,0,0.339623,80.6773,52.7957)">
                <path d="M922.661,119.455C923.092,119.455 923.467,119.401 923.788,119.294C924.108,119.186 924.371,119.037 924.578,118.848C924.785,118.658 924.939,118.432 925.041,118.172C925.143,117.911 925.194,117.625 925.194,117.313C925.194,116.69 924.989,116.211 924.578,115.877C924.167,115.542 923.54,115.375 922.695,115.375L921.233,115.375L921.233,119.455L922.661,119.455ZM928.543,125.898L926.478,125.898C926.087,125.898 925.804,125.745 925.628,125.439L923.044,121.504C922.948,121.356 922.841,121.252 922.725,121.189C922.609,121.127 922.438,121.096 922.211,121.096L921.233,121.096L921.233,125.898L918.947,125.898L918.947,113.607L922.695,113.607C923.528,113.607 924.244,113.694 924.842,113.867C925.439,114.039 925.93,114.282 926.312,114.593C926.695,114.905 926.977,115.278 927.158,115.711C927.339,116.145 927.43,116.622 927.43,117.143C927.43,117.557 927.369,117.948 927.247,118.316C927.125,118.685 926.95,119.019 926.72,119.319C926.491,119.62 926.207,119.883 925.87,120.11C925.533,120.336 925.149,120.515 924.718,120.645C924.866,120.73 925.002,120.831 925.126,120.947C925.251,121.063 925.364,121.201 925.466,121.359L928.543,125.898Z" style="fill:rgb(67,128,193);fill-rule:nonzero;"/>
            </g>
            <g transform="matrix(0.898542,0,0,0.339623,80.6773,52.7957)">
                <path d="M942.415,119.753C942.415,120.654 942.267,121.488 941.969,122.256C941.672,123.024 941.251,123.688 940.707,124.249C940.163,124.81 939.508,125.248 938.743,125.563C937.978,125.877 937.128,126.034 936.193,126.034C935.264,126.034 934.417,125.877 933.652,125.563C932.887,125.248 932.231,124.81 931.684,124.249C931.137,123.688 930.714,123.024 930.413,122.256C930.113,121.488 929.963,120.654 929.963,119.753C929.963,118.852 930.113,118.017 930.413,117.25C930.714,116.482 931.137,115.817 931.684,115.256C932.231,114.695 932.887,114.258 933.652,113.943C934.417,113.629 935.264,113.471 936.193,113.471C936.817,113.471 937.403,113.544 937.953,113.688C938.503,113.833 939.007,114.037 939.466,114.3C939.925,114.564 940.337,114.884 940.703,115.261C941.068,115.637 941.378,116.058 941.633,116.523C941.888,116.987 942.082,117.492 942.216,118.036C942.349,118.58 942.415,119.152 942.415,119.753ZM940.078,119.753C940.078,119.078 939.987,118.474 939.806,117.938C939.625,117.403 939.367,116.948 939.032,116.574C938.698,116.2 938.291,115.914 937.813,115.715C937.334,115.517 936.794,115.418 936.193,115.418C935.593,115.418 935.053,115.517 934.574,115.715C934.095,115.914 933.687,116.2 933.35,116.574C933.013,116.948 932.754,117.403 932.572,117.938C932.391,118.474 932.3,119.078 932.3,119.753C932.3,120.427 932.391,121.032 932.572,121.568C932.754,122.103 933.013,122.556 933.35,122.928C933.687,123.299 934.095,123.583 934.574,123.782C935.053,123.98 935.593,124.079 936.193,124.079C936.794,124.079 937.334,123.98 937.813,123.782C938.291,123.583 938.698,123.299 939.032,122.928C939.367,122.556 939.625,122.103 939.806,121.568C939.987,121.032 940.078,120.427 940.078,119.753Z" style="fill:rgb(67,128,193);fill-rule:nonzero;"/>
            </g>
            <g transform="matrix(0.898542,0,0,0.339623,80.6773,52.7957)">
                <path d="M952.615,124.011L952.615,125.898L945.416,125.898L945.416,113.607L947.702,113.607L947.702,124.011L952.615,124.011Z" style="fill:rgb(67,128,193);fill-rule:nonzero;"/>
            </g>
            <g transform="matrix(0.898542,0,0,0.339623,80.6773,52.7957)">
                <rect x="955.233" y="113.607" width="2.295" height="12.291" style="fill:rgb(67,128,193);fill-rule:nonzero;"/>
            </g>
            <g transform="matrix(0.898542,0,0,0.339623,80.6773,52.7957)">
                <path d="M970.372,119.787C970.791,119.787 971.157,119.734 971.468,119.63C971.78,119.525 972.039,119.375 972.246,119.179C972.453,118.984 972.607,118.746 972.709,118.465C972.811,118.185 972.862,117.871 972.862,117.526C972.862,117.197 972.811,116.9 972.709,116.633C972.607,116.367 972.454,116.14 972.25,115.953C972.046,115.766 971.789,115.623 971.477,115.524C971.165,115.425 970.797,115.375 970.372,115.375L968.663,115.375L968.663,119.787L970.372,119.787ZM970.372,113.607C971.194,113.607 971.905,113.704 972.505,113.896C973.106,114.089 973.602,114.358 973.993,114.704C974.384,115.049 974.674,115.463 974.864,115.945C975.054,116.426 975.149,116.953 975.149,117.526C975.149,118.121 975.05,118.666 974.851,119.162C974.653,119.658 974.356,120.084 973.959,120.441C973.562,120.798 973.065,121.076 972.467,121.274C971.869,121.473 971.171,121.572 970.372,121.572L968.663,121.572L968.663,125.898L966.377,125.898L966.377,113.607L970.372,113.607Z" style="fill:rgb(67,128,193);fill-rule:nonzero;"/>
            </g>
            <g transform="matrix(0.898542,0,0,0.339623,80.6773,52.7957)">
                <path d="M989.607,119.753C989.607,120.654 989.459,121.488 989.161,122.256C988.864,123.024 988.443,123.688 987.899,124.249C987.355,124.81 986.7,125.248 985.935,125.563C985.17,125.877 984.32,126.034 983.385,126.034C982.456,126.034 981.609,125.877 980.844,125.563C980.079,125.248 979.423,124.81 978.876,124.249C978.329,123.688 977.906,123.024 977.605,122.256C977.305,121.488 977.155,120.654 977.155,119.753C977.155,118.852 977.305,118.017 977.605,117.25C977.906,116.482 978.329,115.817 978.876,115.256C979.423,114.695 980.079,114.258 980.844,113.943C981.609,113.629 982.456,113.471 983.385,113.471C984.009,113.471 984.595,113.544 985.145,113.688C985.695,113.833 986.199,114.037 986.658,114.3C987.117,114.564 987.529,114.884 987.895,115.261C988.26,115.637 988.57,116.058 988.825,116.523C989.08,116.987 989.274,117.492 989.408,118.036C989.541,118.58 989.607,119.152 989.607,119.753ZM987.27,119.753C987.27,119.078 987.179,118.474 986.998,117.938C986.817,117.403 986.559,116.948 986.224,116.574C985.89,116.2 985.483,115.914 985.005,115.715C984.526,115.517 983.986,115.418 983.385,115.418C982.785,115.418 982.245,115.517 981.766,115.715C981.287,115.914 980.879,116.2 980.542,116.574C980.205,116.948 979.946,117.403 979.764,117.938C979.583,118.474 979.492,119.078 979.492,119.753C979.492,120.427 979.583,121.032 979.764,121.568C979.946,122.103 980.205,122.556 980.542,122.928C980.879,123.299 981.287,123.583 981.766,123.782C982.245,123.98 982.785,124.079 983.385,124.079C983.986,124.079 984.526,123.98 985.005,123.782C985.483,123.583 985.89,123.299 986.224,122.928C986.559,122.556 986.817,122.103 986.998,121.568C987.179,121.032 987.27,120.427 987.27,119.753Z" style="fill:rgb(67,128,193);fill-rule:nonzero;"/>
            </g>
            <g transform="matrix(0.898542,0,0,0.339623,80.6773,52.7957)">
                <path d="M996.773,121.529C996.773,122.221 996.688,122.844 996.518,123.399C996.348,123.955 996.094,124.428 995.757,124.819C995.42,125.21 994.999,125.51 994.495,125.72C993.991,125.929 993.404,126.034 992.735,126.034C992.429,126.034 992.129,126.016 991.834,125.979C991.54,125.942 991.231,125.884 990.908,125.805C990.925,125.578 990.945,125.351 990.967,125.125C990.99,124.898 991.01,124.671 991.027,124.445C991.044,124.32 991.093,124.22 991.176,124.143C991.258,124.067 991.375,124.028 991.528,124.028C991.625,124.028 991.751,124.048 991.907,124.088C992.062,124.127 992.259,124.147 992.497,124.147C992.82,124.147 993.107,124.101 993.356,124.007C993.605,123.914 993.813,123.765 993.981,123.561C994.148,123.357 994.274,123.092 994.359,122.766C994.444,122.44 994.486,122.045 994.486,121.58L994.486,113.607L996.773,113.607L996.773,121.529Z" style="fill:rgb(67,128,193);fill-rule:nonzero;"/>
            </g>
            <g transform="matrix(0.898542,0,0,0.339623,80.6773,52.7957)">
                <path d="M1006.68,121.257L1005.19,117.169C1005.11,116.987 1005.04,116.772 1004.96,116.523C1004.88,116.273 1004.8,116.004 1004.72,115.715C1004.65,116.004 1004.57,116.275 1004.49,116.527C1004.41,116.779 1004.34,116.999 1004.26,117.186L1002.77,121.257L1006.68,121.257ZM1010.72,125.898L1008.95,125.898C1008.75,125.898 1008.59,125.849 1008.47,125.75C1008.34,125.65 1008.25,125.527 1008.19,125.38L1007.27,122.872L1002.18,122.872L1001.26,125.38C1001.22,125.51 1001.13,125.629 1001,125.737C1000.87,125.844 1000.71,125.898 1000.51,125.898L998.728,125.898L1003.56,113.607L1005.89,113.607L1010.72,125.898Z" style="fill:rgb(67,128,193);fill-rule:nonzero;"/>
            </g>
            <g transform="matrix(0.898542,0,0,0.339623,80.6773,52.7957)">
                <path d="M1021.45,114.449C1021.45,114.709 1021.38,114.947 1021.23,115.163L1014.92,124.071L1021.3,124.071L1021.3,125.898L1011.95,125.898L1011.95,124.997C1011.95,124.884 1011.97,124.775 1012.01,124.67C1012.05,124.565 1012.1,124.467 1012.17,124.377L1018.49,115.426L1012.35,115.426L1012.35,113.607L1021.45,113.607L1021.45,114.449Z" style="fill:rgb(67,128,193);fill-rule:nonzero;"/>
            </g>
            <g transform="matrix(0.898542,0,0,0.339623,80.6773,52.7957)">
                <path d="M1035.18,119.753C1035.18,120.654 1035.03,121.481 1034.72,122.235C1034.42,122.988 1034,123.637 1033.46,124.181C1032.91,124.725 1032.26,125.147 1031.5,125.448C1030.73,125.748 1029.88,125.898 1028.94,125.898L1024.26,125.898L1024.26,113.607L1028.94,113.607C1029.88,113.607 1030.73,113.759 1031.5,114.062C1032.26,114.365 1032.91,114.787 1033.46,115.329C1034,115.87 1034.42,116.517 1034.72,117.271C1035.03,118.024 1035.18,118.852 1035.18,119.753ZM1032.83,119.753C1032.83,119.078 1032.74,118.474 1032.56,117.938C1032.38,117.403 1032.13,116.949 1031.79,116.578C1031.45,116.207 1031.04,115.922 1030.57,115.724C1030.09,115.525 1029.55,115.426 1028.94,115.426L1026.56,115.426L1026.56,124.079L1028.94,124.079C1029.55,124.079 1030.09,123.98 1030.57,123.782C1031.04,123.583 1031.45,123.299 1031.79,122.928C1032.13,122.556 1032.38,122.103 1032.56,121.568C1032.74,121.032 1032.83,120.427 1032.83,119.753Z" style="fill:rgb(67,128,193);fill-rule:nonzero;"/>
            </g>
            <g transform="matrix(0.898542,0,0,0.339623,80.6773,52.7957)">
                <path d="M1049.9,119.753C1049.9,120.654 1049.75,121.488 1049.45,122.256C1049.15,123.024 1048.73,123.688 1048.19,124.249C1047.64,124.81 1046.99,125.248 1046.23,125.563C1045.46,125.877 1044.61,126.034 1043.68,126.034C1042.75,126.034 1041.9,125.877 1041.13,125.563C1040.37,125.248 1039.71,124.81 1039.17,124.249C1038.62,123.688 1038.2,123.024 1037.9,122.256C1037.6,121.488 1037.44,120.654 1037.44,119.753C1037.44,118.852 1037.6,118.017 1037.9,117.25C1038.2,116.482 1038.62,115.817 1039.17,115.256C1039.71,114.695 1040.37,114.258 1041.13,113.943C1041.9,113.629 1042.75,113.471 1043.68,113.471C1044.3,113.471 1044.89,113.544 1045.43,113.688C1045.99,113.833 1046.49,114.037 1046.95,114.3C1047.41,114.564 1047.82,114.884 1048.18,115.261C1048.55,115.637 1048.86,116.058 1049.12,116.523C1049.37,116.987 1049.57,117.492 1049.7,118.036C1049.83,118.58 1049.9,119.152 1049.9,119.753ZM1047.56,119.753C1047.56,119.078 1047.47,118.474 1047.29,117.938C1047.11,117.403 1046.85,116.948 1046.52,116.574C1046.18,116.2 1045.77,115.914 1045.3,115.715C1044.82,115.517 1044.28,115.418 1043.68,115.418C1043.08,115.418 1042.54,115.517 1042.06,115.715C1041.58,115.914 1041.17,116.2 1040.83,116.574C1040.5,116.948 1040.24,117.403 1040.06,117.938C1039.87,118.474 1039.78,119.078 1039.78,119.753C1039.78,120.427 1039.87,121.032 1040.06,121.568C1040.24,122.103 1040.5,122.556 1040.83,122.928C1041.17,123.299 1041.58,123.583 1042.06,123.782C1042.54,123.98 1043.08,124.079 1043.68,124.079C1044.28,124.079 1044.82,123.98 1045.3,123.782C1045.77,123.583 1046.18,123.299 1046.52,122.928C1046.85,122.556 1047.11,122.103 1047.29,121.568C1047.47,121.032 1047.56,120.427 1047.56,119.753ZM1047.26,110.08L1044.51,112.511C1044.4,112.613 1044.29,112.675 1044.19,112.698C1044.08,112.72 1043.95,112.732 1043.8,112.732L1042.27,112.732L1044.05,110.428C1044.11,110.349 1044.16,110.285 1044.22,110.237C1044.28,110.189 1044.34,110.153 1044.41,110.131C1044.47,110.108 1044.55,110.094 1044.63,110.088C1044.71,110.083 1044.81,110.08 1044.92,110.08L1047.26,110.08Z" style="fill:rgb(67,128,193);fill-rule:nonzero;"/>
            </g>
            <g transform="matrix(0.898542,0,0,0.339623,80.6773,52.7957)">
                <path d="M1069,113.607L1065.18,125.898L1063.12,125.898L1060.43,117.5C1060.36,117.296 1060.29,117.047 1060.22,116.752C1060.19,116.894 1060.16,117.027 1060.12,117.152C1060.09,117.276 1060.05,117.393 1060.01,117.5L1057.3,125.898L1055.23,125.898L1051.42,113.607L1053.33,113.607C1053.53,113.607 1053.7,113.654 1053.83,113.748C1053.96,113.841 1054.05,113.967 1054.1,114.126L1056.19,121.478C1056.23,121.66 1056.28,121.857 1056.32,122.069C1056.36,122.282 1056.41,122.504 1056.45,122.736C1056.5,122.498 1056.55,122.274 1056.6,122.065C1056.65,121.855 1056.71,121.66 1056.77,121.478L1059.19,114.126C1059.23,113.995 1059.32,113.876 1059.46,113.769C1059.59,113.661 1059.75,113.607 1059.94,113.607L1060.62,113.607C1060.82,113.607 1060.98,113.655 1061.1,113.752C1061.23,113.848 1061.32,113.973 1061.38,114.126L1063.79,121.478C1063.91,121.83 1064.01,122.235 1064.11,122.694C1064.18,122.246 1064.27,121.841 1064.36,121.478L1066.45,114.126C1066.48,113.984 1066.57,113.862 1066.71,113.76C1066.85,113.658 1067.01,113.607 1067.2,113.607L1069,113.607Z" style="fill:rgb(67,128,193);fill-rule:nonzero;"/>
            </g>
        </g>
    </g>
</svg>
