<?xml version="1.0" standalone="no"?>
<!DOCTYPE svg PUBLIC "-//W3C//DTD SVG 1.1//EN" "http://www.w3.org/Graphics/SVG/1.1/DTD/svg11.dtd">
<svg width="100%" height="100%" viewBox="0 0 353 352" version="1.1" xmlns="http://www.w3.org/2000/svg" xmlns:xlink="http://www.w3.org/1999/xlink" xml:space="preserve" style="fill-rule:evenodd;clip-rule:evenodd;stroke-linejoin:round;stroke-miterlimit:1.41421;">
    <g transform="matrix(1,0,0,1,-79.9273,-80.1)">
        <path d="M415.9,335.5C401.3,320.5 359.8,292.4 332.6,292.4C326.3,292.4 320.8,293.8 316.3,296.7C303,305.2 292.4,311.8 287.3,311.8C284.5,311.8 281.5,309.3 274.9,303.6L273.8,302.6C255.5,286.7 251.6,282.6 244.5,275.2L242.7,273.3C241.4,272 240.3,270.8 239.2,269.7C233,263.3 228.5,258.7 212.6,240.7L211.9,239.9C204.3,231.3 199.3,225.7 199,221.6C198.7,217.6 202.2,211.1 211.1,199C221.9,184.4 222.3,166.4 212.4,145.5C204.5,129 191.6,113.2 180.2,99.3L179.2,98.1C169.4,86.1 158,80.1 145.3,80.1C131.2,80.1 119.5,87.7 113.3,91.7C112.8,92 112.3,92.4 111.8,92.7C97.9,101.5 87.8,113.6 84,125.9C78.3,144.4 74.5,168.4 101.8,218.3C125.4,261.5 146.8,290.5 180.8,325.4C212.8,358.2 227,368.8 258.8,391.8C294.2,417.4 328.2,432.1 352,432.1C374.1,432.1 391.5,432.1 416.3,402.2C442.3,370.8 431.5,351.6 415.9,335.5ZM404.4,391.4C384.4,415.6 372.9,415.6 352.1,415.6C331.8,415.6 300.3,401.6 267.9,378.3C236.9,355.9 223.1,345.6 192,313.7C159.1,280 138.4,251.9 115.6,210.2C91.5,166.1 94.2,146.8 99.1,130.9C101.7,122.4 109.5,113.3 120.1,106.7C120.6,106.4 121.1,106 121.7,105.7C127,102.3 135.8,96.6 145.4,96.6C153.4,96.6 160.5,100.6 167.3,108.9L168.3,110.1C193.8,141.3 213.7,168.9 198.7,189.3C188.1,203.6 182.5,213.3 183.4,223.3C184.2,233 190.7,240.3 200.5,251.3L201.2,252.1C217.3,270.3 221.9,275.1 228.3,281.6C229.4,282.7 230.5,283.9 231.8,285.2L233.6,287.1C241,294.8 245.1,299 263.9,315.5L265,316.5C273,323.5 278.9,328.6 287.5,328.6C296.4,328.6 306.2,323 324.8,311.1C326.7,309.9 329.4,309.2 332.8,309.2C354.5,309.2 391.9,334 405,347.5C417,359.7 423,368.9 404.4,391.4Z" style="fill:rgb(178,182,190);fill-rule:nonzero;"/>
    </g>
</svg>
