<?xml version="1.0" standalone="no"?>
<!DOCTYPE svg PUBLIC "-//W3C//DTD SVG 1.1//EN" "http://www.w3.org/Graphics/SVG/1.1/DTD/svg11.dtd">
<svg width="100%" height="100%" viewBox="0 0 107 123" version="1.1" xmlns="http://www.w3.org/2000/svg" xmlns:xlink="http://www.w3.org/1999/xlink" xml:space="preserve" style="fill-rule:evenodd;clip-rule:evenodd;stroke-linecap:round;stroke-linejoin:round;stroke-miterlimit:1.41421;">
    <g transform="matrix(1,0,0,1,-1308.22,-1203.39)">
        <g transform="matrix(1.36207,0,0,1.36207,785.858,-169.338)">
            <path d="M422.5,1009.15L460.172,1030.9L460.172,1074.4L422.5,1096.15L384.828,1074.4L384.828,1030.9L422.5,1009.15Z" style="fill:none;stroke-width:1.53px;stroke:rgb(34,116,192);"/>
        </g>
        <g>
            <g transform="matrix(0.15454,0,0,0.152978,1321.33,1223.07)">
                <circle cx="256" cy="95.7" r="16" style="fill:rgb(34,116,192);"/>
            </g>
            <g transform="matrix(0.15454,0,0,0.152978,1321.33,1223.07)">
                <path d="M400,64L307.9,64C312,68.6 315.2,74 317.3,80L392,80C396.4,80 400,83.6 400,88L400,440C400,444.4 396.4,448 392,448L120,448C115.6,448 112,444.4 112,440L112,88C112,83.6 115.6,80 120,80L194.7,80C196.8,74 200,68.6 204.1,64L112,64C103.2,64 96,71.2 96,80L96,448C96,456.8 103.2,464 112,464L400,464C408.8,464 416,456.8 416,448L416,80C416,71.2 408.8,64 400,64Z" style="fill:rgb(34,116,192);fill-rule:nonzero;"/>
            </g>
            <g transform="matrix(0.15454,0,0,0.152978,1321.33,1223.07)">
                <path d="M176,111L176,128L128,128L128,432L384,432L384,128L336,128L336,111C336,102.2 329.6,96 320.8,96L304,96C304,90.4 303,85 301.3,80C299.2,74 296,68.6 291.9,64C283.1,54.1 270.3,48 256,48C241.7,48 228.9,54.1 220.1,64C216,68.6 212.8,74 210.7,80C209,85 208,90.4 208,96L193.5,96C184.7,96 176,102.2 176,111ZM336,160L336,144L368,144L368,416L144,416L144,144L176,144L176,160L336,160ZM224,112L224,95.5C224,77.6 238.1,63.5 256,63.5C273.9,63.5 288,77.6 288,95.5L288,112L320,112L320,144L192,144L192,112L224,112Z" style="fill:rgb(34,116,192);fill-rule:nonzero;"/>
            </g>
        </g>
    </g>
</svg>
