<?xml version="1.0" standalone="no"?>
<!DOCTYPE svg PUBLIC "-//W3C//DTD SVG 1.1//EN" "http://www.w3.org/Graphics/SVG/1.1/DTD/svg11.dtd">
<svg width="100%" height="100%" viewBox="0 0 107 123" version="1.1" xmlns="http://www.w3.org/2000/svg" xmlns:xlink="http://www.w3.org/1999/xlink" xml:space="preserve" style="fill-rule:evenodd;clip-rule:evenodd;stroke-linecap:round;stroke-linejoin:round;stroke-miterlimit:1.41421;">
    <g transform="matrix(1,0,0,1,-503.173,-1203.39)">
        <g>
            <g transform="matrix(0.138446,0,0,0.138446,521.862,1228.38)">
                <path d="M170.5,301.2C161,309 155.5,320.7 155.5,333.1L155.5,377.4C155.5,382.9 159.9,387.3 165.4,387.3C170.9,387.3 175.3,382.9 175.3,377.4L175.3,333.1C175.3,326.6 178.1,320.6 183.1,316.5C222.4,284.2 265.1,262.7 273.2,258.7C277.6,256.6 280.4,252.1 280.4,247.2L280.4,184.8C280.4,181.5 278.7,178.4 276,176.6C270.6,173 267.4,167 267.4,160.6L267.4,95.9C267.4,69.2 289.1,47.5 315.8,47.5L329.7,47.5C356.4,47.5 378.1,69.2 378.1,95.9L378.1,160.6C378.1,167 374.9,173 369.5,176.6C366.7,178.4 365.1,181.5 365.1,184.8L365.1,247.1C365.1,252 367.9,256.5 372.3,258.6C380.5,262.6 423.1,284.1 462.4,316.4C467.3,320.5 470.2,326.5 470.2,333L470.2,377.3C470.2,382.8 474.6,387.2 480.1,387.2C485.6,387.2 490,382.8 490,377.3L490,333C490,320.6 484.5,309 475,301.1C438.4,271 399,249.9 384.9,242.7L384.9,189.5C393.1,182.1 397.9,171.6 397.9,160.4L397.9,95.7C397.9,58.1 367.3,27.5 329.7,27.5L315.8,27.5C278.2,27.5 247.6,58.1 247.6,95.7L247.6,160.4C247.6,171.6 252.4,182.1 260.6,189.5L260.6,242.7C246.5,249.9 207.2,271.1 170.5,301.2Z" style="fill:rgb(34,116,192);fill-rule:nonzero;"/>
            </g>
            <g transform="matrix(0.138446,0,0,0.138446,521.862,1228.38)">
                <path d="M143.7,90.7L132.4,90.7C100.8,90.7 75,116.4 75,148.1L75,200.8C75,210.2 78.9,219 85.6,225.3L85.6,266.7C73.3,273 42,290 12.9,313.9C4.7,320.6 0,330.6 0,341.3L0,377.4C0,382.9 4.4,387.3 9.9,387.3C15.4,387.3 19.8,382.9 19.8,377.4L19.8,341.3C19.8,336.6 21.9,332.2 25.5,329.2C57.4,303 91.9,285.6 98.6,282.3C102.8,280.3 105.5,275.9 105.5,271.3L105.5,220.5C105.5,217.2 103.8,214.1 101.1,212.3C97.2,209.7 94.9,205.4 94.9,200.8L94.9,148.1C94.9,127.4 111.8,110.5 132.5,110.5L143.8,110.5C164.5,110.5 181.4,127.4 181.4,148.1L181.4,200.8C181.4,205.4 179.1,209.7 175.2,212.3C172.4,214.1 170.8,217.2 170.8,220.5L170.8,262.2C170.8,267.7 175.2,272.1 180.7,272.1C186.2,272.1 190.6,267.7 190.6,262.2L190.6,225.3C197.3,219 201.2,210.2 201.2,200.8L201.2,148.1C201.1,116.4 175.4,90.7 143.7,90.7Z" style="fill:rgb(34,116,192);fill-rule:nonzero;"/>
            </g>
            <g transform="matrix(0.138446,0,0,0.138446,521.862,1228.38)">
                <path d="M344.2,255.1C338.7,255.1 334.3,259.5 334.3,265C334.3,271.4 329.1,276.5 322.8,276.5C320.4,276.5 318.2,275.8 316.4,274.5C316,274.1 315.5,273.7 315,273.4C312.7,271.3 311.3,268.3 311.3,264.9C311.3,259.4 306.9,255 301.4,255C295.9,255 291.5,259.4 291.5,264.9C291.5,272.9 294.5,280.1 299.4,285.7L292.7,433.3C292.6,436.3 293.8,439.1 296,441.1L316.9,459.9C318.8,461.6 321.2,462.5 323.5,462.5C325.9,462.5 328.2,461.7 330.1,460L350.7,441.5C352.9,439.5 354.1,436.7 354,433.7L347.6,284.3C351.8,279 354.3,272.3 354.3,265.1C354.1,259.6 349.6,255.1 344.2,255.1ZM323.4,439.4L312.6,429.7L318.6,296.2C319.9,296.4 321.3,296.5 322.6,296.5C324.4,296.5 326.2,296.3 328,296L333.8,430L323.4,439.4Z" style="fill:rgb(34,116,192);fill-rule:nonzero;"/>
            </g>
        </g>
        <g transform="matrix(1.36207,0,0,1.36207,-19.1851,-169.338)">
            <path d="M422.5,1009.15L460.172,1030.9L460.172,1074.4L422.5,1096.15L384.828,1074.4L384.828,1030.9L422.5,1009.15Z" style="fill:none;stroke-width:1.53px;stroke:rgb(34,116,192);"/>
        </g>
    </g>
</svg>
