<?xml version="1.0" standalone="no"?>
<!DOCTYPE svg PUBLIC "-//W3C//DTD SVG 1.1//EN" "http://www.w3.org/Graphics/SVG/1.1/DTD/svg11.dtd">
<svg width="100%" height="100%" viewBox="0 0 107 123" version="1.1" xmlns="http://www.w3.org/2000/svg" xmlns:xlink="http://www.w3.org/1999/xlink" xml:space="preserve" style="fill-rule:evenodd;clip-rule:evenodd;stroke-linecap:round;stroke-linejoin:round;stroke-miterlimit:1.41421;">
    <g transform="matrix(1,0,0,1,-907.216,-1203.39)">
        <g transform="matrix(1.36207,0,0,1.36207,384.858,-169.338)">
            <path d="M422.5,1009.15L460.172,1030.9L460.172,1074.4L422.5,1096.15L384.828,1074.4L384.828,1030.9L422.5,1009.15Z" style="fill:none;stroke-width:1.53px;stroke:rgb(34,116,192);"/>
        </g>
        <g transform="matrix(1.10036,0,0,1.10036,930.335,1233.19)">
            <path d="M40.85,36.665C40.746,36.56 40.634,36.47 40.456,36.331C40.059,36.012 39.484,36.044 39.124,36.404L37.735,37.793L31.141,31.199L40.946,21.394C42.174,21.848 43.461,22.078 44.783,22.078C47.728,22.078 50.498,20.932 52.58,18.849C55.822,15.608 56.717,10.622 54.805,6.445C54.669,6.147 54.396,5.935 54.074,5.877C53.751,5.819 53.421,5.922 53.19,6.154L49.19,10.153L45.907,9.9L45.655,6.618L49.654,2.619C49.885,2.387 49.989,2.056 49.931,1.734C49.873,1.412 49.66,1.138 49.363,1.002C47.929,0.347 46.336,0 44.755,0C41.809,0 39.04,1.146 36.959,3.228C33.875,6.312 32.911,10.812 34.413,14.863L24.609,24.668L13.319,13.378L14.026,12.671C14.214,12.483 14.319,12.23 14.319,11.964C14.319,11.699 14.214,11.444 14.026,11.257L6.498,3.729C6.123,3.354 5.459,3.354 5.084,3.729L2.256,6.558C1.865,6.949 1.865,7.581 2.256,7.972L9.784,15.499C9.979,15.694 10.235,15.792 10.491,15.792C10.747,15.792 11.003,15.694 11.198,15.499L11.905,14.792L23.195,26.082L14.862,34.415C13.635,33.96 12.347,33.731 11.025,33.731C8.079,33.731 5.31,34.877 3.228,36.959C-0.013,40.2 -0.908,45.187 1.002,49.364C1.139,49.662 1.412,49.874 1.734,49.932C2.054,49.989 2.386,49.887 2.619,49.655L6.618,45.655L9.901,45.908L10.154,49.191L6.154,53.19C5.923,53.421 5.819,53.753 5.877,54.075C5.936,54.397 6.148,54.671 6.445,54.806C7.879,55.462 9.472,55.809 11.054,55.809L11.055,55.809C13.999,55.809 16.769,54.663 18.849,52.581C21.934,49.496 22.898,44.996 21.395,40.946L29.727,32.614L36.321,39.208L34.932,40.597C34.576,40.953 34.592,41.586 34.902,41.985C34.994,42.102 35.086,42.217 35.193,42.323L46.499,53.63C47.339,54.47 48.468,54.952 49.597,54.952C50.596,54.952 51.518,54.58 52.196,53.902L52.429,53.668C53.17,52.927 53.54,51.913 53.47,50.814C53.403,49.763 52.937,48.753 52.157,47.974L40.85,36.665ZM4.376,7.262L5.79,5.847L11.904,11.961L11.198,12.668L11.197,12.668L11.197,12.669L10.49,13.375L4.376,7.262ZM36.295,15.806C36.588,15.514 36.67,15.073 36.503,14.695C34.979,11.247 35.713,7.299 38.372,4.64C40.076,2.936 42.342,1.998 44.754,1.998C45.553,1.998 46.355,2.105 47.128,2.314L43.915,5.527C43.709,5.734 43.602,6.019 43.625,6.311L43.979,10.906C44.017,11.398 44.408,11.789 44.899,11.827L49.496,12.181C49.786,12.203 50.073,12.098 50.28,11.891L53.493,8.678C54.323,11.764 53.467,15.135 51.167,17.434C49.463,19.139 47.196,20.078 44.784,20.078C43.509,20.078 42.274,19.817 41.112,19.304C40.735,19.136 40.293,19.22 40.001,19.512L29.728,29.785L26.023,26.08L36.295,15.806ZM19.513,40C19.221,40.292 19.139,40.733 19.305,41.111C20.83,44.559 20.096,48.506 17.436,51.166C15.733,52.87 13.467,53.808 11.055,53.808C10.256,53.808 9.453,53.701 8.68,53.492L11.893,50.279C12.1,50.072 12.206,49.787 12.184,49.496L11.83,44.899C11.791,44.408 11.4,44.017 10.909,43.979L6.312,43.625C6.023,43.605 5.735,43.708 5.529,43.916L2.316,47.129C1.485,44.043 2.341,40.672 4.641,38.373C6.345,36.668 8.613,35.73 11.024,35.73C12.298,35.73 13.535,35.99 14.695,36.503C15.073,36.67 15.514,36.587 15.806,36.295L24.608,27.494L28.313,31.199L19.513,40ZM51.014,52.253L50.782,52.487C50.398,52.87 49.927,52.95 49.597,52.95C48.994,52.95 48.381,52.681 47.914,52.214L37.029,41.329L39.857,38.5L50.743,49.386C51.179,49.822 51.438,50.373 51.475,50.939C51.507,51.456 51.344,51.923 51.014,52.253Z" style="fill:rgb(34,116,192);fill-rule:nonzero;"/>
        </g>
    </g>
</svg>
